/vscmnt/brussel_pixiu_data/_data_brussel/112/vsc11236/PredSimResults/SUBJ07opt3D/expIG/worker_08.mot
version=1
nRows=7
nColumns=50
inDegrees=yes
endheader
                time	         pelvis_tilt	         pelvis_list	     pelvis_rotation	           pelvis_tx	           pelvis_ty	           pelvis_tz	       hip_flexion_r	     hip_adduction_r	      hip_rotation_r	        knee_angle_r	       ankle_angle_r	         mtp_angle_r	       hip_flexion_l	     hip_adduction_l	      hip_rotation_l	        knee_angle_l	       ankle_angle_l	         mtp_angle_l	    lumbar_extension	      lumbar_bending	     lumbar_rotation	 ercspn_r/activation	 intobl_r/activation	 extobl_r/activation	    abd_r/activation	    add_r/activation	hamstrings_r/activation	bifemsh_r/activation	glut_max_r/activation	iliopsoas_r/activation	rect_fem_r/activation	  vasti_r/activation	gastroc_r/activation	 soleus_r/activation	tib_ant_r/activation	 ercspn_l/activation	 intobl_l/activation	 extobl_l/activation	    abd_l/activation	    add_l/activation	hamstrings_l/activation	bifemsh_l/activation	glut_max_l/activation	iliopsoas_l/activation	rect_fem_l/activation	  vasti_l/activation	gastroc_l/activation	 soleus_l/activation	tib_ant_l/activation	
          1.59894542	         -4.26776037	          0.35163871	         -8.27610436	          2.07862905	          0.84669742	          0.01218928	        -15.39611975	         -0.36177488	          4.04170751	         -8.46852396	          7.47440986	         28.85987680	         30.45611741	         -2.21370775	         -4.69277815	         -6.43459168	          2.56472329	          0.28037074	        -11.19944671	          1.20593910	          1.64346486	          0.12568591	          0.01000003	          0.01000003	          0.03141531	          0.01777379	          0.01852099	          0.15606311	          0.01922818	          0.21122065	          0.01177673	          0.01177660	          0.14464506	          0.30117788	          0.01884775	          0.12180718	          0.13607173	          0.01000017	          0.01177651	          0.14345490	          0.08593931	          0.13473386	          0.08560226	          0.03945303	          0.01000121	          0.01000002	          0.01000007	          0.01000006	          0.41374102	
          1.60960506	         -4.26583577	          0.34818786	         -8.33156516	          2.09473118	          0.84513628	          0.01191986	        -15.87235466	         -0.48327440	          3.73504273	         -9.51582394	          6.45962464	         30.42571661	         30.30198568	         -1.99524972	         -4.34907436	         -8.07632194	          2.18558814	          0.26115463	        -11.09480436	          0.80262320	          1.82105704	          0.13736171	          0.01000001	          0.01000025	          0.02667603	          0.03902769	          0.01572912	          0.13251964	          0.01632745	          0.17935636	          0.01000023	          0.01000006	          0.12282407	          0.28125233	          0.01600440	          0.10343152	          0.12855983	          0.01000004	          0.01000008	          0.12181354	          0.07850515	          0.13579986	          0.13831972	          0.03350119	          0.01000007	          0.01000002	          0.01386920	          0.01177661	          0.45786801	
          1.62026470	         -4.25771556	          0.33446941	         -8.33581868	          2.11095322	          0.84378804	          0.01157138	        -16.18615758	         -0.57627967	          3.37879451	        -10.87284599	          5.34843094	         31.91334208	         30.06584574	         -1.83181562	         -4.02152901	         -9.60936042	          1.71359162	          0.25386179	        -10.99190970	          0.40901341	          1.98827295	          0.15714876	          0.01000001	          0.01000004	          0.02265171	          0.03314057	          0.01336205	          0.11252791	          0.01386433	          0.15229932	          0.01000056	          0.01000018	          0.10429497	          0.25851787	          0.01359000	          0.13565761	          0.10916545	          0.01000004	          0.09926770	          0.14407798	          0.07011502	          0.11623069	          0.13824253	          0.02844725	          0.01000004	          0.01000000	          0.01177692	          0.01000001	          0.53960712	
          1.63092433	         -4.24492734	          0.29644776	         -8.29297814	          2.12711326	          0.84281420	          0.01112864	        -16.25962757	         -0.62701230	          2.98921291	        -12.64586606	          4.12021364	         33.25556220	         29.82497654	         -1.68706124	         -3.75309529	        -11.11635234	          1.20740241	          0.23174550	        -10.91049918	          0.04193160	          2.14541656	          0.19682929	          0.01000002	          0.01000006	          0.01923450	          0.04179196	          0.01330081	          0.09555212	          0.01177280	          0.12932400	          0.01000072	          0.01000015	          0.08856115	          0.22355460	          0.01153983	          0.15310571	          0.09269688	          0.01000005	          0.15143873	          0.17260490	          0.05994311	          0.09869631	          0.17264095	          0.02415573	          0.01000008	          0.01000002	          0.01000029	          0.01000002	          0.57071378	
          1.64158397	         -4.22732503	          0.24089925	         -8.20787907	          2.14308173	          0.84235378	          0.01060415	        -16.02327237	         -0.64283979	          2.57107161	        -14.93459547	          2.79351177	         34.29339472	         29.63630323	         -1.55229546	         -3.52487849	        -12.75084845	          0.97569225	          0.20764095	        -10.85717769	         -0.30551402	          2.29019141	          0.24111167	          0.01000001	          0.01000005	          0.01633281	          0.05842360	          0.01471272	          0.08113728	          0.01000003	          0.10981447	          0.01000019	          0.01000003	          0.07520091	          0.18982940	          0.01000001	          0.16300971	          0.07871273	          0.01000003	          0.19708443	          0.20127152	          0.05090050	          0.08380713	          0.20236086	          0.02051163	          0.01000008	          0.01623480	          0.01000009	          0.01000004	          0.56012912	
          1.65224360	         -4.20565316	          0.17246927	         -8.08151095	          2.15875055	          0.84253709	          0.01001052	        -15.40965769	         -0.62958203	          2.12051636	        -17.83171123	          1.37891010	         34.81845803	         29.50843352	         -1.42687113	         -3.33957838	        -14.51871194	          1.08194617	          0.18510532	        -10.83521901	         -0.63597109	          2.41959932	          0.26958932	          0.01000001	          0.01000005	          0.01386886	          0.09181337	          0.01575597	          0.06889706	          0.01000002	          0.09324804	          0.01000019	          0.01000001	          0.06385618	          0.16119195	          0.01000001	          0.17629067	          0.06683822	          0.01000002	          0.21941263	          0.22953269	          0.04629596	          0.07116412	          0.21733866	          0.01741727	          0.01000009	          0.03777097	          0.01000008	          0.01000002	          0.52618520	
          1.66290324	         -4.18089571	          0.09135443	         -7.91443619	          2.17411453	          0.84339739	          0.00936919	        -14.38451525	         -0.59235816	          1.64189022	        -21.36705258	         -0.19119181	         34.70854241	         29.36537832	         -1.30655615	         -3.18575780	        -16.26843860	          1.48494624	          0.17134571	        -10.83514396	         -0.94822602	          2.53033795	          0.28136052	          0.01000001	          0.01000005	          0.01177662	          0.11905890	          0.01655588	          0.05850344	          0.01000001	          0.07918078	          0.01000013	          0.01000000	          0.05422291	          0.13687471	          0.01000001	          0.17456070	          0.05675508	          0.01000002	          0.22493681	          0.24422287	          0.04278916	          0.06042843	          0.22023242	          0.01478973	          0.01000008	          0.05599721	          0.01000007	          0.01000001	          0.46018271	
